<?xml version="1.0" encoding="utf-8"?>
<!-- Generator: Adobe Illustrator 15.1.0, SVG Export Plug-In . SVG Version: 6.00 Build 0)  -->
<!DOCTYPE svg PUBLIC "-//W3C//DTD SVG 1.1//EN" "http://www.w3.org/Graphics/SVG/1.1/DTD/svg11.dtd">
<svg version="1.1" id="Layer_1" xmlns="http://www.w3.org/2000/svg" xmlns:xlink="http://www.w3.org/1999/xlink" x="0px" y="0px"
	 width="164px" height="50px" viewBox="0 0 164 50" enable-background="new 0 0 164 50" xml:space="preserve">
<g>
	<path fill="#FFFFFF" d="M20.941,35.656h-5.75V21.252h5.748L20.941,35.656L20.941,35.656z"/>
	<path fill="#FFFFFF" d="M43.029,35.656h-3.842l-9.158-11.412v11.412h-4.77V15.491h4.219l8.781,11.202V15.491h4.77V35.656
		L43.029,35.656z"/>
	<path fill="#FFFFFF" d="M65.29,25.055c0,3.859-1.465,6.759-4.394,8.699c-1.928,1.268-4.578,1.902-7.951,1.902h-6.734V15.491H52.6
		c2.178,0,3.738,0.086,4.684,0.259c2.523,0.461,4.49,1.514,5.896,3.154C64.586,20.544,65.29,22.596,65.29,25.055z M58.925,25.169
		c0-2.403-0.733-4.084-2.198-5.045c-0.81-0.539-1.947-0.808-3.412-0.808h-1.041V31.83H53.2c1.83,0,3.181-0.441,4.049-1.325
		C58.366,29.35,58.925,27.572,58.925,25.169z"/>
	<path fill="#FFFFFF" d="M73.674,35.656h-6.062V15.491h6.062V35.656z"/>
	<path fill="#FFFFFF" d="M90.366,35.656H76.843V15.491h12.312v3.825h-6.246v3.856h6.103v3.855h-6.103v4.802h7.46L90.366,35.656
		L90.366,35.656z"/>
	<path fill="#D40000" d="M110.926,15.76l-7.803,19.896H97.4L90.206,15.91l6.356-0.721l4.422,14.327l4.738-14.327L110.926,15.76z"/>
	<path fill="#D40000" d="M131.066,25.486c0,3.016-0.904,5.5-2.717,7.459C126.48,34.98,124.043,36,121.038,36
		s-5.442-1.008-7.312-3.023c-1.832-1.959-2.746-4.437-2.746-7.433c0-3.053,0.963-5.549,2.89-7.489
		c1.928-1.939,4.413-2.91,7.459-2.91c2.772,0,5.091,0.984,6.948,2.953C130.139,20.066,131.066,22.529,131.066,25.486z
		 M124.702,25.66c0-4.209-1.241-6.312-3.724-6.312c-2.442,0-3.664,2.074-3.664,6.225s1.229,6.228,3.692,6.228
		C123.471,31.801,124.702,29.753,124.702,25.66z"/>
	<path fill="#D40000" d="M149,35.248l-6.328,0.691l-3.611-6.854l-3.986,6.854l-5.348-0.691l6.588-10.464L131.2,15.79l6.213-0.569
		l2.37,5.219l2.89-5.219l5.433,0.316l-5.722,8.76L149,35.248z"/>
	<path fill="#D40000" d="M21.034,16.995c0,0.864-0.284,1.583-0.853,2.159c-0.567,0.576-1.274,0.864-2.12,0.864
		c-0.848,0-1.569-0.283-2.166-0.85S15,17.916,15,17.109c0-0.94,0.284-1.693,0.852-2.26C16.42,14.284,17.166,14,18.089,14
		c0.847,0,1.548,0.288,2.106,0.864C20.755,15.439,21.034,16.148,21.034,16.995z"/>
</g>
</svg>
